# This file uses centimeters as units for non-parametric coordinates.

mtllib cube-test.mtl
g default
v -0.989712 -0.989712 0.989712
v 0.989712 -0.989712 0.989712
v -0.989712 0.989712 0.989712
v 0.989712 0.989712 0.989712
v -0.989712 0.989712 -0.989712
v 0.989712 0.989712 -0.989712
v -0.989712 -0.989712 -0.989712
v 0.989712 -0.989712 -0.989712
vt 0.750032 0.108173
vt 0.750032 0.891827
vt 0.250032 0.891827
vt -0.249968 0.891827
vt -0.249968 0.108173
vt 1.750032 0.891827
vt 0.000000 0.507813
vt 1.000000 0.507813
vt 1.250032 0.891827
vt 1.750032 0.108173
vt 1.250032 0.108173
vt 0.250032 0.108173
vt 1.000000 0.507813
vt 0.000000 0.507813
vt 0.000000 0.500000
vt 1.000000 0.500000
vt 1.000000 0.500000
vt 0.000000 0.500000
vn 0.000000 0.000000 1.000000
vn 0.000000 0.000000 1.000000
vn 0.000000 0.000000 1.000000
vn 0.000000 0.000000 1.000000
vn 0.000000 1.000000 0.000000
vn 0.000000 1.000000 0.000000
vn 0.000000 1.000000 0.000000
vn 0.000000 1.000000 0.000000
vn 0.000000 0.000000 -1.000000
vn 0.000000 0.000000 -1.000000
vn 0.000000 0.000000 -1.000000
vn 0.000000 0.000000 -1.000000
vn 0.000000 -1.000000 0.000000
vn 0.000000 -1.000000 0.000000
vn 0.000000 -1.000000 0.000000
vn 0.000000 -1.000000 0.000000
vn 1.000000 0.000000 0.000000
vn 1.000000 0.000000 0.000000
vn 1.000000 0.000000 0.000000
vn 1.000000 0.000000 0.000000
vn -1.000000 0.000000 0.000000
vn -1.000000 0.000000 0.000000
vn -1.000000 0.000000 0.000000
vn -1.000000 0.000000 0.000000
s off
g pCube1
usemtl initialShadingGroup
f 1/12/1 2/1/2 4/2/3 3/3/4
f 3/7/5 4/8/6 6/13/7 5/14/8
f 5/6/9 6/9/10 8/11/11 7/10/12
f 7/15/13 8/16/14 2/17/15 1/18/16
f 2/1/17 8/11/18 6/9/19 4/2/20
f 7/5/21 1/12/22 3/3/23 5/4/24
