# 3ds Max Wavefront OBJ Exporter v0.97b - (c)2007 guruware
# File Created: 18.04.2015 13:26:39

mtllib house.mtl

#
# object Box001
#

v  -16.1403 23.0411 0.2212
v  -16.1403 -18.2541 0.2212
v  18.6847 -18.2541 0.2212
v  18.6847 23.0411 0.2212
v  -16.1403 23.0411 -33.0286
v  18.6847 23.0411 -33.0286
v  18.6847 -18.2541 -33.0286
v  -16.1403 -18.2541 -33.0286
# 8 vertices

vn 0.0000 0.0000 1.0000
vn 0.0000 -0.0000 -1.0000
vn 0.0000 1.0000 -0.0000
vn 1.0000 0.0000 -0.0000
vn 0.0000 -1.0000 0.0000
vn -1.0000 0.0000 -0.0000
# 6 vertex normals

vt 1.0000 0.0000 0.0000
vt 1.0000 1.0000 0.0000
vt 0.0000 1.0000 0.0000
vt 0.0000 0.0000 0.0000
# 4 texture coords

g Box001
usemtl wire_145028177
s 2
f 1/1/1 2/2/1 3/3/1 4/4/1 
s 4
f 5/4/2 6/1/2 7/2/2 8/3/2 
s 8
f 1/4/3 4/1/3 6/2/3 5/3/3 
s 16
f 4/4/4 3/1/4 7/2/4 6/3/4 
s 32
f 3/4/5 2/1/5 8/2/5 7/3/5 
s 64
f 2/4/6 1/1/6 5/2/6 8/3/6 
# 6 polygons

#
# object Pyramid001
#

v  1.8354 2.0762 -54.5314
v  -20.9840 27.2303 -32.6272
v  24.6548 27.2303 -32.6272
v  24.6548 -23.0779 -32.6272
v  -20.9840 -23.0779 -32.6272
v  1.8354 2.0762 -32.6272
# 6 vertices

vn 0.0000 0.6567 -0.7541
vn 0.6925 -0.0000 -0.7214
vn 0.0000 -0.6567 -0.7541
vn -0.6925 -0.0000 -0.7214
vn 0.0000 0.0000 1.0000
# 5 vertex normals

vt 0.5000 1.0000 0.0000
vt 0.0000 0.0000 0.0000
vt 1.0000 0.0000 0.0000
vt 0.0464 0.0000 0.0000
vt 1.0464 0.0000 0.0000
vt 0.0000 1.0000 0.0000
vt 0.5000 0.5000 0.0000
vt 1.0000 1.0000 0.0000
# 8 texture coords

g Pyramid001
usemtl wire_228214153
s 4
f 9/5/7 10/6/7 11/7/7 
s 2
f 9/5/8 11/8/8 12/9/8 
s 16
f 9/5/9 12/6/9 13/7/9 
s 32
f 9/5/10 13/8/10 10/9/10 
s 8
f 10/10/11 14/11/11 11/12/11 
f 11/12/11 14/11/11 12/7/11 
f 12/7/11 14/11/11 13/6/11 
f 13/6/11 14/11/11 10/10/11 
# 0 polygons - 8 triangles

